<svg width="20" height="20" viewBox="0 0 20 20" fill="none" xmlns="http://www.w3.org/2000/svg">
<path d="M11.6667 2.5C12.1087 2.5 12.5326 2.67559 12.8452 2.98816C13.1577 3.30072 13.3333 3.72464 13.3333 4.16667V6.66667H16.6667C17.1087 6.66667 17.5326 6.84226 17.8452 7.15482C18.1577 7.46738 18.3333 7.89131 18.3333 8.33333V15.8333C18.3333 16.2754 18.1577 16.6993 17.8452 17.0118C17.5326 17.3244 17.1087 17.5 16.6667 17.5H3.33333C2.89131 17.5 2.46738 17.3244 2.15482 17.0118C1.84226 16.6993 1.66667 16.2754 1.66667 15.8333V10.8333C1.66667 10.3913 1.84226 9.96738 2.15482 9.65482C2.46738 9.34226 2.89131 9.16667 3.33333 9.16667H6.66667V4.16667C6.66667 3.72464 6.84226 3.30072 7.15482 2.98816C7.46738 2.67559 7.89131 2.5 8.33333 2.5H11.6667ZM11.6667 4.16667H8.33333V15.8333H11.6667V4.16667ZM16.6667 8.33333H13.3333V15.8333H16.6667V8.33333ZM6.66667 10.8333H3.33333V15.8333H6.66667V10.8333Z" fill="#EAEAEA"/>
</svg>
