<svg width="133" height="120" viewBox="0 0 133 120" fill="none" xmlns="http://www.w3.org/2000/svg">
<path d="M102.736 118.25C103.789 119.754 105.868 120.126 107.318 118.999C117.49 111.09 125.166 100.379 129.377 88.1503C133.949 74.872 134.2 60.4871 130.094 47.0573C125.988 33.6275 117.736 21.8423 106.521 13.3907C95.3051 4.93919 81.7019 0.255217 67.6606 0.0101281C53.6193 -0.234961 39.8609 3.97142 28.3572 12.0264C16.8535 20.0814 8.1951 31.5714 3.62301 44.8497C-0.949078 58.1281 -1.20016 72.513 2.90574 85.9427C6.68695 98.3105 13.9845 109.284 23.8748 117.543C25.2843 118.72 27.3752 118.42 28.4804 116.954C29.5855 115.487 29.2857 113.409 27.8827 112.225C19.1108 104.816 12.6357 95.0231 9.26517 83.9985C5.56986 71.9117 5.79583 58.9653 9.91071 47.0148C14.0256 35.0643 21.8181 24.7232 32.1714 17.4738C42.5248 10.2243 54.9074 6.43854 67.5445 6.65912C80.1817 6.8797 92.4246 11.0953 102.519 18.7017C112.613 26.3081 120.04 36.9147 123.735 49.0016C127.43 61.0884 127.204 74.0348 123.089 85.9853C119.336 96.8855 112.523 106.447 103.498 113.544C102.055 114.68 101.682 116.746 102.736 118.25Z" fill="#E9EDF0"/>
</svg>
