<svg width="140" height="129" viewBox="0 0 140 129" fill="none" xmlns="http://www.w3.org/2000/svg">
<path d="M36.6906 124.488C33.5834 128.926 27.4123 130.049 23.432 126.374C17.3343 120.744 12.2252 114.097 8.3458 106.706C2.94178 96.4106 0.0807073 84.9711 0.00169605 73.3439C-0.0773152 61.7166 2.62806 50.2393 7.89167 39.8713C13.1553 29.5034 20.8242 20.546 30.2574 13.7479C39.6907 6.94978 50.6141 2.50846 62.1148 0.795165C73.6154 -0.91813 85.3591 0.146373 96.3642 3.8997C107.369 7.65302 117.316 13.9861 125.373 22.3696C131.157 28.388 135.847 35.3375 139.258 42.9031C141.485 47.8415 138.468 53.3404 133.275 54.8842C128.083 56.4279 122.699 53.409 120.23 48.5872C117.87 43.978 114.841 39.722 111.229 35.9632C105.342 29.8373 98.0733 25.2096 90.0318 22.467C81.9902 19.7244 73.409 18.9466 65.0054 20.1985C56.6017 21.4504 48.6198 24.6957 41.7269 29.6632C34.8339 34.6306 29.2302 41.1759 25.384 48.7518C21.5378 56.3278 19.561 64.7144 19.6187 73.2106C19.6764 81.7067 21.7671 90.0657 25.7158 97.5887C28.1388 102.205 31.2181 106.424 34.844 110.121C38.637 113.989 39.7977 120.051 36.6906 124.488Z" fill="#D6A85C"/>
</svg>
