<svg width="15" height="15" viewBox="0 0 15 15" fill="none" xmlns="http://www.w3.org/2000/svg">
<path d="M13.2338 4.25775C13.5643 3.92739 13.75 3.4793 13.75 3.01204C13.7501 2.54478 13.5645 2.09664 13.2341 1.7662C12.9038 1.43575 12.4557 1.25008 11.9884 1.25002C11.5212 1.24996 11.073 1.43552 10.7426 1.76588L2.40135 10.109C2.25624 10.2537 2.14892 10.4318 2.08885 10.6277L1.26323 13.3477C1.24708 13.4018 1.24586 13.4592 1.2597 13.5139C1.27354 13.5686 1.30193 13.6185 1.34185 13.6584C1.38177 13.6982 1.43174 13.7265 1.48645 13.7403C1.54116 13.754 1.59858 13.7527 1.6526 13.7365L4.37322 12.9115C4.56895 12.852 4.74708 12.7453 4.89197 12.6009L13.2338 4.25775Z" stroke="#0D6EFD" stroke-width="1.22727" stroke-linecap="round" stroke-linejoin="round"/>
<path d="M9.37503 3.12518L11.875 5.62517" stroke="#0D6EFD" stroke-width="1.22727" stroke-linecap="round" stroke-linejoin="round"/>
</svg>
