<svg width="24" height="24" viewBox="0 0 24 24" fill="none" xmlns="http://www.w3.org/2000/svg">
<g clip-path="url(#clip0_0_76)">
<path d="M3.99529 15.7508H9.99529C10.1311 15.7508 10.2453 15.865 10.2453 16.0008V20.0008C10.2453 20.1366 10.1311 20.2508 9.99529 20.2508H3.99529C3.85951 20.2508 3.74529 20.1366 3.74529 20.0008V16.0008C3.74529 15.865 3.85951 15.7508 3.99529 15.7508ZM13.9953 11.7508H19.9953C20.1311 11.7508 20.2453 11.865 20.2453 12.0008V20.0008C20.2453 20.1366 20.1311 20.2508 19.9953 20.2508H13.9953C13.8595 20.2508 13.7453 20.1366 13.7453 20.0008V12.0008C13.7453 11.865 13.8595 11.7508 13.9953 11.7508ZM3.99529 3.75079H9.99529C10.1311 3.75079 10.2453 3.86501 10.2453 4.00079V12.0008C10.2453 12.1366 10.1311 12.2508 9.99529 12.2508H3.99529C3.85951 12.2508 3.74529 12.1366 3.74529 12.0008V4.00079C3.74529 3.86501 3.85951 3.75079 3.99529 3.75079ZM13.9953 3.75079H19.9953C20.1311 3.75079 20.2453 3.86501 20.2453 4.00079V8.00079C20.2453 8.13658 20.1311 8.25079 19.9953 8.25079H13.9953C13.8595 8.25079 13.7453 8.13658 13.7453 8.00079V4.00079C13.7453 3.86501 13.8595 3.75079 13.9953 3.75079Z" stroke="white" stroke-width="1.5"/>
</g>
<defs>
<clipPath id="clip0_0_76">
<rect width="24" height="24" fill="white"/>
</clipPath>
</defs>
</svg>
