<svg width="24" height="24" viewBox="0 0 24 24" fill="none" xmlns="http://www.w3.org/2000/svg">
<g clip-path="url(#clip0_0_178)">
<path d="M3.99529 15.751H9.99529C10.1311 15.751 10.2453 15.8652 10.2453 16.001V20.001C10.2453 20.1368 10.1311 20.251 9.99529 20.251H3.99529C3.85951 20.251 3.74529 20.1368 3.74529 20.001V16.001C3.74529 15.8652 3.85951 15.751 3.99529 15.751ZM13.9953 11.751H19.9953C20.1311 11.751 20.2453 11.8652 20.2453 12.001V20.001C20.2453 20.1368 20.1311 20.251 19.9953 20.251H13.9953C13.8595 20.251 13.7453 20.1368 13.7453 20.001V12.001C13.7453 11.8652 13.8595 11.751 13.9953 11.751ZM3.99529 3.75098H9.99529C10.1311 3.75098 10.2453 3.86519 10.2453 4.00098V12.001C10.2453 12.1368 10.1311 12.251 9.99529 12.251H3.99529C3.85951 12.251 3.74529 12.1368 3.74529 12.001V4.00098C3.74529 3.86519 3.85951 3.75098 3.99529 3.75098ZM13.9953 3.75098H19.9953C20.1311 3.75098 20.2453 3.86519 20.2453 4.00098V8.00098C20.2453 8.13676 20.1311 8.25098 19.9953 8.25098H13.9953C13.8595 8.25098 13.7453 8.13676 13.7453 8.00098V4.00098C13.7453 3.86519 13.8595 3.75098 13.9953 3.75098Z" stroke="#2D2D2D" stroke-width="1.5"/>
</g>
<defs>
<clipPath id="clip0_0_178">
<rect width="24" height="24" fill="white"/>
</clipPath>
</defs>
</svg>
