<svg width="20" height="20" viewBox="0 0 20 20" fill="none" xmlns="http://www.w3.org/2000/svg">
<path d="M11.6667 14.1665C11.8791 14.1667 12.0834 14.2481 12.2378 14.3939C12.3923 14.5397 12.4852 14.739 12.4976 14.951C12.5101 15.163 12.4411 15.3718 12.3048 15.5347C12.1685 15.6976 11.9751 15.8023 11.7642 15.8273L11.6667 15.8332H8.33333C8.12093 15.8329 7.91664 15.7516 7.76219 15.6058C7.60775 15.46 7.5148 15.2607 7.50236 15.0487C7.48991 14.8366 7.5589 14.6279 7.69522 14.465C7.83155 14.3021 8.02492 14.1974 8.23583 14.1723L8.33333 14.1665H11.6667ZM14.1667 9.1665C14.3877 9.1665 14.5996 9.2543 14.7559 9.41058C14.9122 9.56686 15 9.77882 15 9.99984C15 10.2209 14.9122 10.4328 14.7559 10.5891C14.5996 10.7454 14.3877 10.8332 14.1667 10.8332H5.83333C5.61232 10.8332 5.40036 10.7454 5.24408 10.5891C5.0878 10.4328 5 10.2209 5 9.99984C5 9.77882 5.0878 9.56686 5.24408 9.41058C5.40036 9.2543 5.61232 9.1665 5.83333 9.1665H14.1667ZM16.6667 4.1665C16.8877 4.1665 17.0996 4.2543 17.2559 4.41058C17.4122 4.56686 17.5 4.77882 17.5 4.99984C17.5 5.22085 17.4122 5.43281 17.2559 5.58909C17.0996 5.74537 16.8877 5.83317 16.6667 5.83317H3.33333C3.11232 5.83317 2.90036 5.74537 2.74408 5.58909C2.5878 5.43281 2.5 5.22085 2.5 4.99984C2.5 4.77882 2.5878 4.56686 2.74408 4.41058C2.90036 4.2543 3.11232 4.1665 3.33333 4.1665H16.6667Z" fill="#2D2D2D"/>
</svg>
