<svg width="20" height="20" viewBox="0 0 20 20" fill="none" xmlns="http://www.w3.org/2000/svg">
<g clip-path="url(#clip0_0_90)">
<path fill-rule="evenodd" clip-rule="evenodd" d="M7.05417 8.57734C7.21044 8.42112 7.42237 8.33335 7.64334 8.33335C7.86431 8.33335 8.07623 8.42112 8.2325 8.57734L10 10.3448L11.7675 8.57734C11.9238 8.42098 12.1357 8.33309 12.3568 8.33301C12.5778 8.33293 12.7899 8.42067 12.9463 8.57693C13.1026 8.73318 13.1905 8.94516 13.1906 9.16621C13.1907 9.38727 13.1029 9.59931 12.9467 9.75568L10.5892 12.1132C10.4329 12.2694 10.221 12.3572 10 12.3572C9.77903 12.3572 9.56711 12.2694 9.41084 12.1132L7.05417 9.75568C6.89794 9.5994 6.81018 9.38748 6.81018 9.16651C6.81018 8.94554 6.89794 8.73362 7.05417 8.57734Z" fill="#2D2D2D"/>
</g>
<defs>
<clipPath id="clip0_0_90">
<rect width="20" height="20" fill="white"/>
</clipPath>
</defs>
</svg>
