<svg width="24" height="24" viewBox="0 0 24 24" fill="none" xmlns="http://www.w3.org/2000/svg">
<g clip-path="url(#clip0_0_135)">
<path fill-rule="evenodd" clip-rule="evenodd" d="M18 2C19.6569 2 21 3.34315 21 5V18C21 19.6569 19.6569 21 18 21H5C3.34315 21 2 19.6569 2 18V5C2 3.34315 3.34315 2 5 2H18ZM12 14H11C10.4477 14 10 14.4477 10 15V19H13V15C13 14.4477 12.5523 14 12 14ZM14.1407 8.7972C13.499 9.53418 12.5539 10 11.5 10C10.4461 10 9.50097 9.53418 8.85931 8.7972C8.13315 9.53939 7.12037 10 6 10C5.27143 10 4.58835 9.80521 4 9.46487V18C4 18.5523 4.44772 19 5 19H8V15C8 13.3431 9.34315 12 11 12H12C13.6569 12 15 13.3431 15 15V19H18C18.5523 19 19 18.5523 19 18V9.46487C18.4117 9.80521 17.7286 10 17 10C15.8796 10 14.8669 9.53938 14.1407 8.7972ZM18 4H5C4.48717 4 4.06449 4.38604 4.00673 4.88338L4 5V6C4 7.10457 4.89543 8 6 8C7.05436 8 7.91817 7.18412 7.99451 6.14926L8 6C8 5.44772 8.44772 5 9 5C9.51283 5 9.93551 5.38604 9.99327 5.88338L10 6V6.5C10 7.32843 10.6716 8 11.5 8C12.2797 8 12.9204 7.40511 12.9931 6.64446L13 6.5V6C13 5.44772 13.4477 5 14 5C14.5523 5 15 5.44772 15 6C15 7.10457 15.8954 8 17 8C18.0544 8 18.9182 7.18412 18.9945 6.14926L19 6V5C19 4.48717 18.614 4.06449 18.1166 4.00673L18 4Z" fill="#2D2D2D"/>
</g>
<defs>
<clipPath id="clip0_0_135">
<rect width="24" height="24" fill="white"/>
</clipPath>
</defs>
</svg>
