<svg width="1362" height="98" viewBox="0 0 1362 98" fill="none" xmlns="http://www.w3.org/2000/svg">
<g opacity="0.45">
<path d="M1361.07 98H0L391.652 0H969.466L969.611 0.0288231L1361.07 98ZM7.19912 97.1353H1353.87L969.128 0.864705H391.942L7.19912 97.1353Z" fill="#D6A85C"/>
<path d="M986.86 4.41H374.21V5.27471H986.86V4.41Z" fill="#D6A85C"/>
<path d="M1006.72 9.36765H354.4V10.2324H1006.72V9.36765Z" fill="#D6A85C"/>
<path d="M1029.28 15.0171H331.788V15.8818H1029.28V15.0171Z" fill="#D6A85C"/>
<path d="M1055.23 21.5024H305.842V22.3671H1055.23V21.5024Z" fill="#D6A85C"/>
<path d="M1085.33 29.0541H275.693V29.9188H1085.33V29.0541Z" fill="#D6A85C"/>
<path d="M1120.74 37.9029H240.325V38.7676H1120.74V37.9029Z" fill="#D6A85C"/>
<path d="M1162.92 48.4524H198.145V49.3171H1162.92V48.4524Z" fill="#D6A85C"/>
<path d="M1214.04 61.25H147.026V62.1147H1214.04V61.25Z" fill="#D6A85C"/>
<path d="M1277.29 77.0741H83.8287V77.9388H1277.29V77.0741Z" fill="#D6A85C"/>
<path d="M449.162 0.0232302L138.678 97.2047L139.352 97.9704L449.836 0.788927L449.162 0.0232302Z" fill="#D6A85C"/>
<path d="M506.862 0.0819822L273.935 97.2114L274.765 97.9202L507.692 0.790695L506.862 0.0819822Z" fill="#D6A85C"/>
<path d="M564.482 0.127472L409.204 97.2706L410.253 97.8673L565.531 0.724206L564.482 0.127472Z" fill="#D6A85C"/>
<path d="M622.116 0.212839L544.484 97.3678L545.792 97.7399L623.424 0.584922L622.116 0.212839Z" fill="#D6A85C"/>
<path d="M681.259 0.432353H679.81V97.5676H681.259V0.432353Z" fill="#D6A85C"/>
<path d="M738.974 0.260036L737.666 0.632119L815.298 97.7871L816.606 97.415L738.974 0.260036Z" fill="#D6A85C"/>
<path d="M796.53 0.141967L795.481 0.738701L950.76 97.8818L951.809 97.2851L796.53 0.141967Z" fill="#D6A85C"/>
<path d="M854.183 0.0514371L853.353 0.76015L1086.28 97.9066L1087.11 97.1979L854.183 0.0514371Z" fill="#D6A85C"/>
<path d="M911.902 0.0706349L911.229 0.836418L1221.75 97.9761L1222.42 97.2103L911.902 0.0706349Z" fill="#D6A85C"/>
</g>
</svg>
