<svg width="24" height="24" viewBox="0 0 24 24" fill="none" xmlns="http://www.w3.org/2000/svg">
<g clip-path="url(#clip0_0_67)">
<path fill-rule="evenodd" clip-rule="evenodd" d="M4 6.414C2.74 5.154 3.632 3 5.414 3H18.586C20.368 3 21.26 5.154 20 6.414L13 13.414V19H15C15.2652 19 15.5196 19.1054 15.7071 19.2929C15.8946 19.4804 16 19.7348 16 20C16 20.2652 15.8946 20.5196 15.7071 20.7071C15.5196 20.8946 15.2652 21 15 21H9C8.73478 21 8.48043 20.8946 8.29289 20.7071C8.10536 20.5196 8 20.2652 8 20C8 19.7348 8.10536 19.4804 8.29289 19.2929C8.48043 19.1054 8.73478 19 9 19H11V13.414L4 6.414ZM5.414 5L12 11.586L18.586 5H5.414Z" fill="white"/>
</g>
<defs>
<clipPath id="clip0_0_67">
<rect width="24" height="24" fill="white"/>
</clipPath>
</defs>
</svg>
